Patient4_TMGait_0pt6_02_left_23_EMG.mot
version=1
nRows=13
nColumns=33
inDegrees=no
endheader
time	1LAddLong	2LGlutMax	3LGlutMed	4LIliopsoas	5LSemiMemb	6LBicFemLong	7LRecFem	8LVastMed	9LVastLat	10LGasMed	11LTibAnt	12lTibPost	13LPeroneusLong	14LSol	15LExtDigLong	16LFlexDigLong	17RAddLong	18RGlutMax	19RGlutMed	20RIliopsoas	21RSemiMemb	22RBicFemLong	23RRecFem	24RVastMed	25RVastLat	26RGasMed	27RTibAnt	28RTibPost	29RPeroneusLong	30RSol	31RExtDigLong	32RFlexDigLong
29.41	0.010681	-0.02182	-0.022736	-0.003815	-0.025482	0.003967	-0.26718	0.005188	0.065155	0.01358	0.017395	-0.010986	0.10162	-0.075989	0.044403	0.005646	0.017548	0.027466	-0.00412	-0.033417	-0.010986	0.002899	0.033569	-0.12192	-0.075989	0.013275	0.15396	0.006256	-0.071564	-0.59616	0.00351	-0.001678
29.411	0.015259	-0.036774	-0.018158	0.014343	-0.013428	0.002136	-0.25986	0.005341	0.077667	0.006104	0.014343	-0.010071	0.099792	-0.10498	0.0354	-0.00824	0.013733	0.085144	0.16922	-0.009766	-0.018311	0.018158	-0.14236	-0.11734	-0.014191	0.027466	0.15106	0.010529	-0.51117	-0.3862	0	-0.002441
29.412	0.000305	-0.036774	-0.001831	-0.002747	0.020294	-0.002747	-0.22201	0.006104	0.10391	-0.014343	0.018311	-0.010834	0.091858	-0.091095	0.034027	0.003052	0.028076	0.024872	0.62683	-0.011902	0.098419	-0.007782	-0.18127	-0.088959	0.11902	0.033264	0.047607	0.00473	-0.71365	-0.39887	-0.002594	0.001526
29.413	0.005646	-0.022278	-0.028229	0.006866	0.021057	0.017242	-0.19806	0.005035	0.13336	-0.020142	0.019073	-0.001831	0.088043	-0.010071	0.02182	-0.002441	0.058136	0.033722	0.19119	-0.047302	0.13443	-0.14038	-0.083313	-0.049591	0.14923	0.024719	0.11871	0.013123	-0.48966	-0.3801	-0.000916	-0.002136
29.414	-0.002594	-0.032806	-0.02594	0.005188	-0.007172	0.034027	-0.16266	0.003357	0.14664	-0.018616	0.020752	-0.009155	0.074768	0.01297	0.016479	0.002441	0.063782	0.005341	-0.07431	-0.049591	-0.072937	-0.1712	-0.011902	-0.017548	0.13473	0.027924	0.20996	-0.000153	0.10849	-0.33707	-0.00473	-0.008545
29.415	-0.045929	-0.00946	-0.027771	-0.008087	-0.027771	0.004578	-0.14053	0.006561	0.13382	-0.030212	0.007019	-0.00412	0.078888	0.021973	0.008698	0.003357	0.059509	-0.017548	0.014801	0.002136	-0.23331	-0.10727	-0.083313	0.046539	0.13275	0.037537	0.46722	-0.00473	0.14999	-0.32318	-0.002899	0.001678
29.416	0.051727	0.000305	-0.025024	0.007782	-0.044556	0.014038	-0.12054	-0.000153	0.11566	-0.036774	-0.027008	-0.014191	0.083466	0.005646	0.007172	0.001526	0.023956	-0.043335	-0.024261	0.014038	-0.17517	-0.095215	-0.17853	0.030365	0.073853	0.019836	0.65124	-0.00885	0.007324	-0.35614	-0.005341	-0.006409
29.417	-0.091248	-0.004272	-0.026093	-0.001526	-0.059509	0.02594	-0.083313	-0.007019	0.074005	-0.03479	-0.063019	-0.009308	0.079803	-0.002441	0.034637	0.009613	-0.027466	-0.047302	-0.083466	0.076599	-0.13641	-0.053558	-0.24277	0.01297	0.093689	0.004578	0.10101	-0.000916	0.014954	-0.30502	-0.002747	-0.007935
29.418	-0.044861	-0.016937	-0.023956	-0.007019	-0.011139	0.015717	-0.073395	0.010834	0.058441	-0.036316	-0.084686	-0.008545	0.075836	-0.015869	0.10788	0.003357	-0.043488	-0.059509	0.27512	0.13626	-0.29877	0.057678	-0.12695	0.013885	0.11902	0.017853	-0.11765	-0.006866	0.081329	-0.20569	-0.005188	-0.003662
29.419	0.02121	0.008392	-0.03479	0.000458	0.04776	0.00351	-0.046387	0.035095	0.045624	-0.047607	-0.059662	-0.016022	0.1181	-0.062561	0.14038	-0.000305	-0.014343	-0.08728	0.41534	0.082703	-0.12253	0.060577	-0.018005	0.08194	0.077667	0.02243	0.081787	-0.004425	0.14999	-0.12116	-0.002441	-0.00473
29.42	0.000458	0.015564	-0.04425	0.002441	0.049896	-0.015411	-0.030365	0.013123	0.029297	-0.064392	0.075378	-0.007629	0.15564	-0.037079	0.085754	-0.00351	-0.019684	-0.14496	0.3125	0.062561	-0.18143	0.16022	-0.1387	0.1535	0.030212	-0.018463	-0.2655	-0.007629	0.20309	-0.050354	-0.001526	-0.010071
29.421	0.022888	0.012665	-0.041199	0.015411	0.032043	-0.027008	-0.003204	-0.003052	0.024719	-0.044556	0.18997	-0.003967	0.1149	-0.015564	-0.005951	-0.002747	-0.051727	-0.14526	0.40909	-0.000458	0.095825	0.095673	-0.14862	0.17075	0.016937	-0.007172	-0.33752	-0.009918	0.15228	-0.032043	-0.003815	0.000916
29.422	0.013885	0.057831	-0.055847	0.001984	0.022583	0.009155	0.010071	0	0.002136	-0.024261	0.21606	-0.007782	0.061646	-0.022583	-0.076447	-0.001678	-0.037384	-0.1918	0.17792	-0.010986	0.27527	-0.054932	-0.10452	0.13672	0.00946	0.009613	-0.24658	-0.01297	0.12177	0.044708	-0.005188	-0.00824
